<?xml version="1.0" standalone="no"?>
<!DOCTYPE svg PUBLIC "-//W3C//DTD SVG 20010904//EN"
 "http://www.w3.org/TR/2001/REC-SVG-20010904/DTD/svg10.dtd">
<svg version="1.0" xmlns="http://www.w3.org/2000/svg"
 width="116.000000pt" height="116.000000pt" viewBox="0 0 116.000000 116.000000"
 preserveAspectRatio="xMidYMid meet">
<metadata>
Created by potrace 1.14, written by Peter Selinger 2001-2017
</metadata>
<g transform="translate(0.000000,116.000000) scale(0.100000,-0.100000)"
fill="#000000" stroke="none">
<path d="M474 1139 c-28 -10 -68 -34 -90 -52 -23 -20 -55 -36 -79 -40 -159
-25 -182 -244 -32 -304 43 -18 48 -39 12 -55 -14 -6 -25 -14 -25 -17 0 -3 -12
-19 -26 -36 -14 -16 -31 -37 -38 -45 -6 -8 -36 -36 -67 -62 -65 -54 -88 -95
-83 -147 3 -30 16 -47 72 -101 38 -36 74 -73 79 -84 16 -29 62 -24 93 10 l26
29 23 -28 c28 -34 69 -56 110 -59 29 -2 31 -5 31 -43 1 -44 11 -63 50 -88 28
-18 83 -16 107 4 22 19 40 61 39 92 -1 21 3 29 21 32 13 3 33 7 46 10 12 2 40
22 62 44 l40 40 26 -31 c17 -20 35 -31 53 -31 15 0 28 2 29 4 30 45 65 83 97
106 46 32 69 75 66 119 -5 45 -18 64 -93 131 -38 33 -80 77 -94 97 -13 20 -36
42 -51 49 -36 16 -38 52 -3 61 36 9 82 58 93 100 27 97 -33 190 -131 204 -27
3 -51 15 -69 33 -71 70 -196 95 -294 58z"/>
</g>
</svg>
