<svg version="1.1" id="Layer_1" xmlns="http://www.w3.org/2000/svg" x="0" y="0" viewBox="0 0 144 65.79" xml:space="preserve"><style>.st2{fill:#009f9d}</style><path d="M49.43.17h14.96v64.75H49.43V.17zm0 0h14.96v64.75H49.43V.17zm39.49 17.72h7.97v12.09h-7.97v17.29c0 4.12 2.77 5.11 5.82 5.11.8 0 1.53 0 2.5-.09v12.8s-1.97.53-5.73.53c-11.11 0-17.55-5.11-17.55-19.08V29.99H69.4v-12.1h4.56V7.95h14.96v9.94zm34.1-1.9c-8.58-.41-15.79 3.66-19.85 9.44l9.76 7.57c1.24-1.38 4.21-4.07 8.94-3.7 6.02.46 7.44 4.21 7.64 6.02-.89-.06-2.36-.16-4.67-.24-10.93-.36-23.44 3.39-23.44 15.66 0 13.34 17.7 18.63 29.77 11.93v2.27h12.47v-29.6c0-10.71-8.3-18.76-20.62-19.35zm3.93 36.94c-1.45 1.36-3.57 2.14-5.8 2.14-3.12 0-6.28-1.63-6.28-4.72 0-2.92 3.45-4.47 9.97-4.47 2.28 0 4.05.19 4.13.2l.36.04.07.35c.02.15.66 3.54-2.45 6.46zM21.98 15.99c-8.58-.41-15.79 3.66-19.85 9.44L11.89 33c1.24-1.38 4.21-4.07 8.94-3.7 6.02.46 7.44 4.21 7.64 6.02-.89-.06-2.36-.16-4.67-.24C12.86 34.71.36 38.46.36 50.73c0 13.34 17.7 18.63 29.77 11.93v2.27H42.6V35.34c0-10.71-8.3-18.76-20.62-19.35zm3.92 36.94c-1.45 1.36-3.57 2.14-5.8 2.14-3.12 0-6.28-1.63-6.28-4.72 0-2.92 3.45-4.47 9.97-4.47 2.28 0 4.05.19 4.13.2l.36.04.07.35c.03.15.67 3.54-2.45 6.46z" fill="#40b7b6"/><path d="M49.43.17h14.96v64.75H49.43V.17zm0 0h14.96v64.75H49.43V.17zm73.59 15.82c-8.58-.41-15.79 3.66-19.85 9.44l9.76 7.57c1.24-1.38 4.21-4.07 8.94-3.7 6.02.46 7.44 4.21 7.64 6.02-.89-.06-2.36-.16-4.67-.24-10.93-.36-23.44 3.39-23.44 15.66 0 13.34 17.7 18.63 29.77 11.93v2.27h12.47v-29.6c0-10.71-8.3-18.76-20.62-19.35zm3.93 36.94c-1.45 1.36-3.57 2.14-5.8 2.14-3.12 0-6.28-1.63-6.28-4.72 0-2.92 3.45-4.47 9.97-4.47 2.28 0 4.05.19 4.13.2l.36.04.07.35c.02.15.66 3.54-2.45 6.46zM21.98 15.99c-8.58-.41-15.79 3.66-19.85 9.44L11.89 33c1.24-1.38 4.21-4.07 8.94-3.7 6.02.46 7.44 4.21 7.64 6.02-.89-.06-2.36-.16-4.67-.24C12.86 34.71.36 38.46.36 50.73c0 13.34 17.7 18.63 29.77 11.93v2.27H42.6V35.34c0-10.71-8.3-18.76-20.62-19.35zm3.92 36.94c-1.45 1.36-3.57 2.14-5.8 2.14-3.12 0-6.28-1.63-6.28-4.72 0-2.92 3.45-4.47 9.97-4.47 2.28 0 4.05.19 4.13.2l.36.04.07.35c.03.15.67 3.54-2.45 6.46z" fill="none"/><path class="st2" d="M64.38 30.36c-4.87-2.11-9.85-3.77-14.96-4.55v39.11h14.96V30.36zM30.13 62.66v2.27H42.6V35.34c0-3.68-.97-7.05-2.76-9.9-6.18.4-11.84 1.8-17.32 4.08 4.6.96 5.77 4.16 5.95 5.79-.89-.06-2.36-.16-4.67-.24C12.86 34.71.36 38.46.36 50.73c0 13.34 17.7 18.62 29.77 11.93zM23.8 45.88c2.28 0 4.05.19 4.13.2l.36.04.07.35c.03.14.66 3.53-2.45 6.45-1.45 1.36-3.57 2.14-5.8 2.14-3.12 0-6.28-1.63-6.28-4.72 0-2.92 3.44-4.46 9.97-4.46zM91.51 65.62c3.76 0 5.73-.53 5.73-.53v-12.8c-.98.09-1.7.09-2.5.09-3.05 0-5.82-.98-5.82-5.11v-4.09c-2.65-1.38-5.34-2.86-8.06-4.37-2.28-1.27-4.58-2.53-6.89-3.77v11.52c-.01 13.96 6.43 19.06 17.54 19.06zM131.17 62.66v2.27h12.47V42.3c-1.52.96-3.1 1.88-4.74 2.72-3.1 1.57-6.28 2.8-9.56 3.71-.24 1.22-.86 2.76-2.39 4.21-1.45 1.36-3.57 2.14-5.8 2.14-3.02 0-6.07-1.53-6.26-4.43-1.46 0-2.93-.04-4.44-.14-2.96-.2-5.93-.84-8.91-1.81-.08.65-.13 1.33-.13 2.04-.01 13.33 17.69 18.61 29.76 11.92z"/></svg>